{"title":"Enemy.of.The.State.DualAudio{hindi-eng}DVDRip.aaaevilacharya","uid":5953872,"size":744104686,"categoryP":"video","categoryS":"movies","magnet":"?xt=urn:btih:9fa5a4751e69c355dacfd74258bce162a61c1b9e&amp;dn=Enemy.of.The.State.DualAudio%7Bhindi-eng%7DDVDRip.aaaevilacharya&amp;tr=udp%3A%2F%2Ftracker.openbittorrent.com%3A80&amp;tr=udp%3A%2F%2Fopen.demonii.com%3A1337&amp;tr=udp%3A%2F%2Ftracker.coppersurfer.tk%3A6969&amp;tr=udp%3A%2F%2Fexodus.desync.com%3A6969","seeders":1,"leechers":0,"uploader":"achaevil","files":4,"time":1289637443,"description":"General\nComplete name                    : Enemy.of.The.State.DualAudio{hindi-eng}DVDRip.aaaevilacharya\nFormat                           : Matroska\nFile size                        : 710 MiB\nDuration                         : 2h 6mn\nOverall bit rate                 : 781 Kbps\nMovie name                       : aaaevilacharya\nEncoded date                     : UTC 2010-11-13 00:59:37\n\n\nVideo\nID                               : 1\nFormat                           : AVC\nFormat/Info                      : Advanced Video Codec\nFormat profile                   : &lt;a class=&quot;__cf_email__&quot; href=&quot;/cdn-cgi/l/email-protection&quot; data-cfemail=&quot;8bc3e2ece3cbc7bfa5ba&quot;&gt;[email&amp;#160;protected]&lt;/a&gt;&lt;script cf-hash='f9e31' type=&quot;text/javascript&quot;&gt;\n/* &lt;![CDATA[ */!function(){try{var t=&quot;currentScript&quot;in document?document.currentScript:function(){for(var t=document.getElementsByTagName(&quot;script&quot;),e=t.length;e--;)if(t[e].getAttribute(&quot;cf-hash&quot;))return t[e]}();if(t&amp;&amp;t.previousSibling){var e,r,n,i,c=t.previousSibling,a=c.getAttribute(&quot;data-cfemail&quot;);if(a){for(e=&quot;&quot;,r=parseInt(a.substr(0,2),16),n=2;a.length-n;n+=2)i=parseInt(a.substr(n,2),16)^r,e+=String.fromCharCode(i);e=document.createTextNode(e),c.parentNode.replaceChild(e,c)}}}catch(u){}}();/* ]]&gt; */&lt;/script&gt;\nFormat settings, CABAC           : Yes\nFormat settings, ReFrames        : 3 frames\nMuxing mode                      : Container profile=&lt;a class=&quot;__cf_email__&quot; href=&quot;/cdn-cgi/l/email-protection&quot; data-cfemail=&quot;a1f4cfcacfced6cfe1958f90&quot;&gt;[email&amp;#160;protected]&lt;/a&gt;&lt;script cf-hash='f9e31' type=&quot;text/javascript&quot;&gt;\n/* &lt;![CDATA[ */!function(){try{var t=&quot;currentScript&quot;in document?document.currentScript:function(){for(var t=document.getElementsByTagName(&quot;script&quot;),e=t.length;e--;)if(t[e].getAttribute(&quot;cf-hash&quot;))return t[e]}();if(t&amp;&amp;t.previousSibling){var e,r,n,i,c=t.previousSibling,a=c.getAttribute(&quot;data-cfemail&quot;);if(a){for(e=&quot;&quot;,r=parseInt(a.substr(0,2),16),n=2;a.length-n;n+=2)i=parseInt(a.substr(n,2),16)^r,e+=String.fromCharCode(i);e=document.createTextNode(e),c.parentNode.replaceChild(e,c)}}}catch(u){}}();/* ]]&gt; */&lt;/script&gt;\nCodec ID                         : V_MPEG4/ISO/AVC\nDuration                         : 2h 6mn\nBit rate                         : 637 Kbps\nWidth                            : 718 pixels\nHeight                           : 272 pixels\nDisplay aspect ratio             : 2.045\nOriginal display aspect ratio    : 2.640\nFrame rate                       : 23.976 fps\nColor space                      : YUV\nChroma subsampling               : 4:2:0\nBit depth                        : 8 bits\nScan type                        : Progressive\nBits/(Pixel*Frame)               : 0.136\nStream size                      : 565 MiB (80%)\nTitle                            : aaaevilacharya\n\n\nLanguage                         : Hindi\n\nAudio #1\nID                               : 2\nFormat                           : MPEG Audio\nFormat version                   : Version 1\nFormat profile                   : Layer 3\nMode                             : Joint stereo\nMode extension                   : MS Stereo\nCodec ID                         : A_MPEG/L3\nCodec ID/Hint                    : MP3\nDuration                         : 2h 6mn\nBit rate mode                    : Constant\nBit rate                         : 64.0 Kbps\nChannel(s)                       : 2 channels\nSampling rate                    : 32.0 KHz\nStream size                      : 58.1 MiB (8%)\n\n\nLanguage                         : english\n\n\nAudio #2\nID                               : 3\nFormat                           : MPEG Audio\nFormat version                   : Version 1\nFormat profile                   : Layer 3\nMode                             : Joint stereo\nMode extension                   : MS Stereo\nCodec ID                         : A_MPEG/L3\nCodec ID/Hint                    : MP3\nDuration                         : 2h 6mn\nBit rate mode                    : Constant\nBit rate                         : 80.0 Kbps\nChannel(s)                       : 2 channels\nSampling rate                    : 32.0 KHz\nStream size                      : 72.6 MiB (10%)\n\nSCREENSHOTS\n &lt;a href=&quot;\nhttp://img98.imageshack.us/img98/6176/vlcsnap2010111313h00m23.png&quot; rel=&quot;nofollow&quot; target=&quot;_NEW&quot;&gt;\nhttp://img98.imageshack.us/img98/6176/vlcsnap2010111313h00m23.png&lt;/a&gt;\n &lt;a href=&quot;\nhttp://img543.imageshack.us/img543/6458/vlcsnap2010111312h58m14.png&quot; rel=&quot;nofollow&quot; target=&quot;_NEW&quot;&gt;\nhttp://img543.imageshack.us/img543/6458/vlcsnap2010111312h58m14.png&lt;/a&gt;\n &lt;a href=&quot;\nhttp://img683.imageshack.us/img683/1399/vlcsnap2010111312h58m29.png&quot; rel=&quot;nofollow&quot; target=&quot;_NEW&quot;&gt;\nhttp://img683.imageshack.us/img683/1399/vlcsnap2010111312h58m29.png&lt;/a&gt;\n &lt;a href=&quot;\nhttp://img576.imageshack.us/img576/1674/vlcsnap2010111312h58m52.png&quot; rel=&quot;nofollow&quot; target=&quot;_NEW&quot;&gt;\nhttp://img576.imageshack.us/img576/1674/vlcsnap2010111312h58m52.png&lt;/a&gt;\n &lt;a href=&quot;\nhttp://img257.imageshack.us/img257/8547/vlcsnap2010111312h59m23.png&quot; rel=&quot;nofollow&quot; target=&quot;_NEW&quot;&gt;\nhttp://img257.imageshack.us/img257/8547/vlcsnap2010111312h59m23.png&lt;/a&gt;\n &lt;a href=&quot;\nhttp://img177.imageshack.us/img177/8448/vlcsnap2010111312h59m33.png&quot; rel=&quot;nofollow&quot; target=&quot;_NEW&quot;&gt;\nhttp://img177.imageshack.us/img177/8448/vlcsnap2010111312h59m33.png&lt;/a&gt;\n &lt;a href=&quot;\nhttp://img529.imageshack.us/img529/8864/vlcsnap2010111313h00m08.png&quot; rel=&quot;nofollow&quot; target=&quot;_NEW&quot;&gt;\nhttp://img529.imageshack.us/img529/8864/vlcsnap2010111313h00m08.png&lt;/a&gt;\n","torrent":{"xt":"urn:btih:9fa5a4751e69c355dacfd74258bce162a61c1b9e","amp;dn":"Enemy.of.The.State.DualAudio%7Bhindi-eng%7DDVDRip.aaaevilacharya","amp;tr":["udp%3A%2F%2Ftracker.openbittorrent.com%3A80","udp%3A%2F%2Fopen.demonii.com%3A1337","udp%3A%2F%2Ftracker.coppersurfer.tk%3A6969","udp%3A%2F%2Fexodus.desync.com%3A6969"],"infoHash":"9fa5a4751e69c355dacfd74258bce162a61c1b9e","infoHashBuffer":{"type":"Buffer","data":[159,165,164,117,30,105,195,85,218,207,215,66,88,188,225,98,166,28,27,158]},"announce":[],"urlList":[]}}